<svg xmlns="http://www.w3.org/2000/svg" viewBox="0 0 256 256">
  <defs><linearGradient id="bg" x1="0" y1="0" x2="1" y2="1"><stop stop-color="#180809"/><stop offset="1" stop-color="#4c0519"/></linearGradient><filter id="s" x="-20%" y="-20%" width="140%" height="140%"><feDropShadow dx="0" dy="10" stdDeviation="10" flood-color="#000" flood-opacity=".35"/></filter></defs>
  <rect width="256" height="256" rx="56" fill="url(#bg)"/>
  <circle cx="204" cy="52" r="34" fill="#fb7185" opacity=".25"/>
  <path d="M35 205c9-55 44-84 93-84s84 29 93 84v51H35z" fill="#ef4444" filter="url(#s)"/>
  <circle cx="128" cy="91" r="47" fill="#ffd1b3"/>
  <path d="M78 88c5-44 32-61 62-55 22 4 36 19 39 47-30-19-67-18-101 8z" fill="#111111"/>
  <path d="M92 92c15 10 52 10 72-1" fill="none" stroke="#111111" stroke-width="11" stroke-linecap="round" opacity=".5"/>
  <circle cx="110" cy="96" r="5" fill="#141414"/><circle cx="146" cy="96" r="5" fill="#141414"/>
  <path d="M111 119c12 8 24 8 35 0" fill="none" stroke="#9a5b4b" stroke-width="6" stroke-linecap="round" opacity=".8"/>
  <path d="M35 60l34-16 34 16v28c0 25-15 42-34 49-19-7-34-24-34-49z" fill="none" stroke="#fb7185" stroke-width="8" opacity=".6"/><path d="M86 94h84" stroke="#111" stroke-width="13" stroke-linecap="round"/>
</svg>