<svg xmlns="http://www.w3.org/2000/svg" viewBox="0 0 256 256">
  <defs><linearGradient id="bg" x1="0" y1="0" x2="1" y2="1"><stop stop-color="#241408"/><stop offset="1" stop-color="#7c2d12"/></linearGradient><filter id="s" x="-20%" y="-20%" width="140%" height="140%"><feDropShadow dx="0" dy="10" stdDeviation="10" flood-color="#000" flood-opacity=".35"/></filter></defs>
  <rect width="256" height="256" rx="56" fill="url(#bg)"/>
  <circle cx="204" cy="52" r="34" fill="#fbbf24" opacity=".25"/>
  <path d="M35 205c9-55 44-84 93-84s84 29 93 84v51H35z" fill="#f97316" filter="url(#s)"/>
  <circle cx="128" cy="91" r="47" fill="#f3c08e"/>
  <path d="M78 88c5-44 32-61 62-55 22 4 36 19 39 47-30-19-67-18-101 8z" fill="#21130d"/>
  <path d="M92 92c15 10 52 10 72-1" fill="none" stroke="#21130d" stroke-width="11" stroke-linecap="round" opacity=".5"/>
  <circle cx="110" cy="96" r="5" fill="#141414"/><circle cx="146" cy="96" r="5" fill="#141414"/>
  <path d="M111 119c12 8 24 8 35 0" fill="none" stroke="#9a5b4b" stroke-width="6" stroke-linecap="round" opacity=".8"/>
  <path d="M28 60h72M28 84h52" stroke="#fbbf24" stroke-width="7" stroke-linecap="round" opacity=".55"/><path d="M74 54h108" stroke="#fbbf24" stroke-width="18" stroke-linecap="round"/>
</svg>