<svg xmlns="http://www.w3.org/2000/svg" viewBox="0 0 256 256">
  <defs><linearGradient id="bg" x1="0" y1="0" x2="1" y2="1"><stop stop-color="#052e2b"/><stop offset="1" stop-color="#064e3b"/></linearGradient><filter id="s" x="-20%" y="-20%" width="140%" height="140%"><feDropShadow dx="0" dy="10" stdDeviation="10" flood-color="#000" flood-opacity=".35"/></filter></defs>
  <rect width="256" height="256" rx="56" fill="url(#bg)"/>
  <circle cx="204" cy="52" r="34" fill="#a7f3d0" opacity=".25"/>
  <path d="M35 205c9-55 44-84 93-84s84 29 93 84v51H35z" fill="#22c55e" filter="url(#s)"/>
  <circle cx="128" cy="91" r="47" fill="#efc7a4"/>
  <path d="M78 88c5-44 32-61 62-55 22 4 36 19 39 47-30-19-67-18-101 8z" fill="#27140e"/>
  <path d="M92 92c15 10 52 10 72-1" fill="none" stroke="#27140e" stroke-width="11" stroke-linecap="round" opacity=".5"/>
  <circle cx="110" cy="96" r="5" fill="#141414"/><circle cx="146" cy="96" r="5" fill="#141414"/>
  <path d="M111 119c12 8 24 8 35 0" fill="none" stroke="#9a5b4b" stroke-width="6" stroke-linecap="round" opacity=".8"/>
  <g opacity=".75" fill="#ecfeff"><rect x="28" y="44" width="36" height="46" rx="6"/><rect x="190" y="68" width="34" height="44" rx="6"/><rect x="177" y="29" width="26" height="35" rx="5"/></g>
</svg>